<?xml version="1.0" encoding="UTF-8" standalone="no"?>
<!-- Created with Inkscape (http://www.inkscape.org/) -->

<svg
   version="1.1"
   id="svg1"
   width="755.60614"
   height="443.33612"
   viewBox="0 0 755.60614 443.33612"
   sodipodi:docname="logos.pdf"
   inkscape:export-batch-path="..\Desktop\logos"
   inkscape:export-batch-name=""
   xmlns:inkscape="http://www.inkscape.org/namespaces/inkscape"
   xmlns:sodipodi="http://sodipodi.sourceforge.net/DTD/sodipodi-0.dtd"
   xmlns="http://www.w3.org/2000/svg"
   xmlns:svg="http://www.w3.org/2000/svg">
  <defs
     id="defs1">
    <clipPath
       clipPathUnits="userSpaceOnUse"
       id="clipPath14">
      <path
         d="M 506.86536,1388.0404 H 2869.3654 v 906.2501 H 506.86536 Z"
         transform="matrix(0.19913346,0,0,0.19913346,-78.133875,-140.29876)"
         clip-rule="evenodd"
         id="path14" />
    </clipPath>
  </defs>
  <sodipodi:namedview
     id="namedview1"
     pagecolor="#ffffff"
     bordercolor="#000000"
     borderopacity="0.25"
     inkscape:showpageshadow="2"
     inkscape:pageopacity="0.0"
     inkscape:pagecheckerboard="0"
     inkscape:deskcolor="#d1d1d1"
     inkscape:export-bgcolor="#ffffff00" />
  <g
     id="g9"
     inkscape:groupmode="layer"
     inkscape:label="2"
     transform="translate(-1262.1969,-290.71484)">
    <g
       id="BION"
       inkscape:label="BION">
      <path
         id="path13"
         d="M 477.10001,293.20001 407.29999,287.80002 478,294.70001 c 0,0 0.39999,0.70001 0.39999,0.70001 l 5.10001,8.5 -132.5,-9 c -1.10001,-5.20001 -1.89999,-11.79998 -2.60001,-18.20001 0,-0.5 -0.1,-0.89999 -0.20001,-1.39999 l 109.4,6 c -37.29999,-5.10001 -73.9,-7.9 -109.60001,-8.4 -0.39999,-3.1 -0.70001,-6.1 -1.20001,-8.89999 25.89999,-0.20001 55.6,2.39999 87.5,6.5 -31.9,-6.20001 -62.10001,-10.79999 -88.30002,-11.20001 -0.60001,-2.9 -1.20001,-5.5 -2.10001,-7.7 35.29999,0.9 77.4,9.3 118.5,16.59999 l 14.70002,24.70001 z m -323,-156.90001 -10.7,7.4 c 62,31 103.09999,75.09999 116.7,133.39998 v -23.5 c -12.9,-50.4 -46.7,-89.5 -106,-117.30001 z m 170.29998,109.30001 c 13.5,16.39999 5.70002,49 15.70002,61.29998 l 3.39999,-7 c 0,0 3,4 9.5,5.9 C 342.39999,291.5 348.60001,257.5 335.60001,243.29999 l -11.20002,2.39999 v -0.1 z m -58.6,32.29998 c 3.39999,2 6.5,7.79999 7.5,12 l 59.5,3.9 c -0.60001,-4.10001 -1,-8.60001 -1.5,-13.5 -0.20001,-1.9 -0.4,-3.9 -0.60001,-5.9 l -17.39999,-1 C 319,273.19998 324.79999,273.10001 330.5,273 c -0.29999,-2.79999 -0.60001,-5.60001 -1.10001,-8.29999 -20.70001,1.4 -38.39999,5 -51.79998,11.79999 12.5,-10.20001 29.89999,-15.20001 50.79998,-16.60001 -0.70001,-3 -1.6,-5.6 -2.79998,-7.39999 l -0.29999,-0.39999 c -26.60001,1.6 -48,11.20001 -59.70001,25.79998 z m -33.69998,-18.19998 c -34.5,-20.1 -84.60001,-23 -148.10001,-11.3 l -15.099998,16.3 c 50.499998,-16.6 116.999988,-25.8 163.200008,-5 z m 24.1,13.69998 c -27,-35 -102.89999,-64.3 -153.8,-73.69999 l -31.800004,34.90001 c 79.300004,-9.9 147.000004,7 185.600004,38.79998 z M 65.5,268.70001 c 60.4,-21.1 145.89999,-31.39999 191.5,9.10001 -9.10001,4.1 -14.3,13.89999 -14.8,20.5 -0.4,-0.20001 -207.100009,4.20001 -207.100009,4.20001 l 7.700001,-12.70001 10.7,-13.29999 c 1.599999,-0.20001 3.099999,-0.5 4.700001,-0.70001 l 4,-4.70001 1.799999,-0.29999 1.5,-2 z m 159,16.4 C 173.10001,281.39999 118.3,283.5 61,289.89999 112.9,287 167.5,285.5 224.5,285.10001 Z M 111,277 c 50.3,-5.20001 96.5,-5.70001 135.5,2.39999 -31.60001,-18.1 -81,-13.5 -135.5,-2.39999 z m 180.89999,-19.5 c 7.10001,-3.3 24.29999,-7.39999 32.5,-7.39999 l -2.70001,-3.9 c -6.70001,0.60001 -23.39999,6.80001 -29.79999,11.4 z M 22.9,309.39999 c 0,1.4 1.2,2.60001 2.7,2.60001 l 214.80001,-4.60001 c 16.09999,7.20002 21.7,8.9 38.40001,1.20002 3.29999,-1.5 5.1,-3.60001 5.20001,-6.10001 0,-1 -0.20001,-2 -0.60001,-2.89999 l 51.20002,3.5 c -0.5,-1.70002 -1,-3.5 -1.29999,-5.5 l -56.20001,-3.79999 c -1.20002,0 -2.29999,0.70001 -2.70002,1.79999 -0.39999,1.20001 0.10001,2.39999 1.10001,3 1.5,0.89999 3.20001,2.6 3.20001,3.39999 0,0.20001 -0.5,0.89999 -2.20001,1.70001 -14.89999,6.79999 -18.79999,5.60001 -34.5,-1.5 C 241.60004,302 241.20003,302 240.80003,302 l -210.600003,4.5 9.5,-12.79999 -15.899999,13.4 c -0.600001,0.5 -1,1.29998 -1,2.1 z m 430.49999,-46.1 -34,-19.60001 c -14.6,-2.2 -28.70001,-3.8 -42.20001,-4.5 -14.1,0.7 -27,1.8 -38.79999,3.60001 l 3.4,5.19999 c 0,0 0,0.2 0.1,0.2 33.10001,0.60001 72.4,8 111.30002,15.10001 z m 36.9,50.6 c 1.39999,0 2.6,-1.1 2.70001,-2.39999 0,-0.60001 -0.10001,-1.20001 -0.5,-1.70001 -0.20001,-0.20001 -0.39999,-0.4 -0.60001,-0.60001 l -10.20001,-10.29999 5.9,9.20002 -135.9,-9.20002 c 0.5,2 1.20001,3.60001 1.9,4.9 l 0.39999,0.70001 136.19998,9.39999 c 0,0 0.10001,0 0.20001,0 h -0.1 z M 261.60001,254 v 23.10001 c 28.89999,-49.2 90,-84.80001 176.5,-96.10001 l -33.5,-16.39999 c -68.5,13.8 -118.30002,47.39999 -143,89.39999 z m -3.9,19.39999 c -6.19999,-21.8 -16.3,-41.39999 -30.1,-59 -30,-24.19999 -70.7,-36.6 -113.30001,-54.1 l -31.099995,28.5 C 168.8,210.59999 229,233.19998 257.60001,273.29999 Z M 338.5,214.8 c -27.60001,13.5 -59.29999,35.40001 -75,62.30001 36.39999,-37.9 125,-61 188.79999,-65.2 L 421.89999,192.3 C 393.10001,196.8 362,205.2 338.5,214.8 Z m 53,8.30001 c -33.79999,7.1 -64.70001,16.69999 -80.29999,23.89999 34.5,-11.2 82.79999,-11 146.4,-10.89999 l -30.79999,-14.9 c -12.20001,0.30001 -24,0.9 -35.29999,1.80001 l -3e-5,0.1 z"
         style="fill:#dfc67b;fill-opacity:1;fill-rule:nonzero;stroke:none"
         transform="matrix(1.6069624,0,0,1.6069624,1225.5582,225.45486)"
         clip-path="url(#clipPath14)" />
      <g
         id="g14">
        <g
           id="g15" />
        <path
           id="path15"
           d="m 24.617404,-139.38984 -16.2697489,-2.71853 v -12.94404 H 39.438193 c 4.726369,0 10.849949,-0.27599 18.367291,-0.82798 1.80085,-0.13799 3.95359,-0.27599 6.45822,-0.41398 2.511531,-0.138 5.43705,-0.207 8.776557,-0.207 21.003018,0 35.713409,2.96002 44.131179,8.87316 8.41776,5.90623 12.62665,14.70349 12.62665,26.38486 0,10.29452 -3.09802,18.88823 -9.28715,25.777689 -6.19257,6.88256 -14.2964,11.091443 -24.314921,12.62665 13.772021,-0.144896 24.584021,2.980718 32.442901,9.38374 7.86578,6.403022 11.79867,15.310675 11.79867,26.716059 0,14.461999 -5.07826,26.077827 -15.23478,34.844034 -10.15651,8.7696566 -27.130043,13.1510351 -50.920583,13.1510351 -6.258127,0 -12.029817,-0.2138941 -17.31852,-0.63478239 -1.390312,0 -3.753496,-0.10694703 -7.093003,-0.3173912 C 46.531196,0.10013916 43.122691,9.1930672e-5 39.645187,9.1930672e-5 H 8.1406608 V -12.516161 l 16.4767432,-2.097542 z m 30.262561,51.955557 c 1.524857,0.137996 4.65737,0.206994 9.397539,0.206994 h 9.797728 c 8.490215,0 14.820789,-2.639177 18.988274,-7.92098 4.174384,-5.288701 6.265026,-12.737051 6.265026,-22.341581 0,-9.1802 -2.15964,-15.85576 -6.472021,-20.02324 -4.30548,-4.17439 -11.467482,-6.26503 -21.486004,-6.26503 -2.649526,0 -8.148674,0.27599 -16.490542,0.82798 z m 0,73.662357 c 3.201511,1.252315 9.321641,1.876748 18.36729,1.876748 11.819373,0 20.371685,-2.780623 25.653489,-8.348769 5.288706,-5.564695 7.934776,-13.634022 7.934776,-24.204528 0,-10.156519 -2.40113,-17.422017 -7.203396,-21.803396 -4.795367,-4.388278 -12.405856,-6.582417 -22.838367,-6.582417 -11.684826,0 -18.988273,0.144896 -21.913792,0.427788 z M 182.38153,-135.01536 c -5.00581,0 -8.96975,-1.45586 -11.89527,-4.37448 -2.92552,-2.92552 -4.38828,-6.68247 -4.38828,-11.27429 0,-5.2887 1.66975,-9.67353 5.00926,-13.15104 3.33951,-3.4775 7.78989,-5.21625 13.35803,-5.21625 5.5647,0 9.80463,1.49726 12.72325,4.48488 2.92552,2.99106 4.38828,6.71351 4.38828,11.16389 0,5.56814 -1.66976,10.01852 -5.00926,13.35803 -3.33951,3.3395 -8.00033,5.00926 -13.97902,5.00926 z m -11.05349,38.81832 -14.82079,-3.97429 v -13.97901 l 38.18354,-4.58148 h 0.41399 l 5.85103,4.16749 v 100.378415 l 13.97902,1.669754 V 9.1930672e-5 H 156.71424 V -12.516161 l 14.6138,-1.876748 z m 0,0"
           style="fill:#3d3d3d;fill-opacity:1;fill-rule:nonzero;stroke:none"
           aria-label="Bi"
           transform="matrix(1.1322778,0,0,1.1322778,1347.47,482.10536)" />
        <g
           id="g16" />
        <path
           id="path16"
           d="m 74.075531,2.2908284 c -22.679671,0 -39.6532,-7.0930033 -50.920588,-21.2790094 C 11.894456,-33.181088 6.2642117,-52.521252 6.2642117,-77.001773 c 0,-15.997206 2.9531181,-30.045217 8.8593543,-42.144027 5.913136,-12.10572 14.227405,-21.43081 24.935908,-27.97183 10.715403,-6.54102 23.031562,-9.81153 36.941576,-9.81153 22.952213,0 40.16379,6.78597 51.63817,20.35444 11.48128,13.56157 17.22192,32.5119 17.22192,56.854423 0,16.145552 -3.02902,30.441956 -9.08015,42.88921 -6.04423,12.447255 -14.4965,22.079388 -25.34989,28.896399 C 100.5846,-1.1176771 88.130441,2.2908284 74.075531,2.2908284 Z M 76.173073,-144.19211 c -11.408834,0 -20.313037,5.63714 -26.716059,16.90453 -6.403023,11.26049 -9.604534,27.954577 -9.604534,50.078813 0,21.841344 3.094564,38.431934 9.287143,49.77522 6.189128,11.336385 15.058832,17.001128 26.605662,17.001128 11.267387,0 20.099142,-5.947635 26.495265,-17.842905 6.40302,-11.89527 9.60453,-29.041295 9.60453,-51.444973 0,-21.699903 -3.06006,-37.869603 -9.17674,-48.505653 -6.120132,-10.64296 -14.951887,-15.96616 -26.495267,-15.96616 z m 97.856537,47.99507 -13.34423,-3.753496 v -14.406804 l 34.63704,-4.37448 h 0.62098 l 5.21626,4.16749 v 8.14177 l -0.207,5.00926 c 4.86437,-4.58837 11.19494,-8.55576 18.98828,-11.89527 7.78988,-3.3395 15.65221,-5.00926 23.58354,-5.00926 8.47987,0 15.12438,1.56626 19.92665,4.69187 4.80227,3.12907 8.24182,8.03138 10.32211,14.710395 2.0872,6.679015 3.13252,15.724664 3.13252,27.130048 v 57.599602 l 12.73704,1.669754 V 9.1930672e-5 H 235.7967 V -12.516161 l 11.27428,-1.669754 v -57.599602 c 0,-7.231 -0.48988,-12.895743 -1.46276,-17.001129 -0.97632,-4.112286 -2.75302,-7.106803 -5.32665,-8.983551 -2.56673,-1.876748 -6.21673,-2.815123 -10.94309,-2.815123 -7.93133,0 -16.4181,3.408507 -25.4603,10.225518 v 75.966893 l 12.51625,1.876748 V 9.1930672e-5 H 161.92734 V -12.516161 l 12.10227,-1.876748 z m 0,0"
           style="fill:#dfc67b;fill-opacity:1;fill-rule:nonzero;stroke:none"
           aria-label="On"
           transform="matrix(1.1322778,0,0,1.1322778,1598.4111,482.10536)" />
      </g>
    </g>
    <g
       id="g17">
      <path
         id="path17"
         d="m 121.64769,267.3818 h 566.7046 v 217.4085 h -566.7046 z"
         style="fill:#000000;fill-opacity:0;fill-rule:nonzero;stroke:none"
         transform="matrix(1.3333333,0,0,-1.3333333,1100,1090.56)" />
    </g>
  </g>
</svg>
