<?xml version="1.0" encoding="UTF-8" standalone="no"?>
<!-- Created with Inkscape (http://www.inkscape.org/) -->

<svg
   version="1.1"
   id="svg1"
   width="701.45703"
   height="183.07422"
   viewBox="0 0 701.45703 183.07422"
   sodipodi:docname="logos.pdf"
   inkscape:export-batch-path="..\Desktop\logos"
   inkscape:export-batch-name=""
   xmlns:inkscape="http://www.inkscape.org/namespaces/inkscape"
   xmlns:sodipodi="http://sodipodi.sourceforge.net/DTD/sodipodi-0.dtd"
   xmlns="http://www.w3.org/2000/svg"
   xmlns:svg="http://www.w3.org/2000/svg">
  <defs
     id="defs1" />
  <sodipodi:namedview
     id="namedview1"
     pagecolor="#ffffff"
     bordercolor="#000000"
     borderopacity="0.25"
     inkscape:showpageshadow="2"
     inkscape:pageopacity="0.0"
     inkscape:pagecheckerboard="0"
     inkscape:deskcolor="#d1d1d1"
     inkscape:export-bgcolor="#ffffff00" />
  <g
     id="g1"
     inkscape:groupmode="layer"
     inkscape:label="1"
     transform="translate(-190.30078,-454.28125)">
    <g
       id="BIBLIOON"
       inkscape:label="BIBLIOON">
      <g
         id="g4">
        <g
           id="g5" />
        <path
           id="path5"
           d="m 9.5613876,-54.107158 -6.3242948,-1.055361 v -5.024783 H 15.310747 c 1.837038,0 4.213571,-0.106323 7.127629,-0.322909 0.702919,-0.05119 1.539726,-0.104355 2.512392,-0.157516 0.970696,-0.0571 2.104816,-0.08664 3.40236,-0.08664 8.153457,0 13.863437,1.147903 17.129939,3.44174 3.264533,2.295806 4.898769,5.70998 4.898769,10.24646 0,4.000924 -1.203034,7.338309 -3.607132,10.010185 -2.400161,2.673846 -5.544587,4.306113 -9.435249,4.898769 5.34966,-0.05119 9.549448,1.163655 12.601334,3.646511 3.049917,2.484826 4.57586,5.938379 4.57586,10.364598 0,5.619408 -1.972897,10.1283227 -5.914752,13.5306831 -3.943824,3.4023603 -10.533928,5.10354049 -19.768343,5.10354049 -2.425757,0 -4.666432,-0.0826963 -6.718087,-0.24415086 -0.541463,0 -1.460967,-0.0433171 -2.756542,-0.12601334 C 18.061382,0.03920205 16.738241,-1.7712405e-4 15.389505,-1.7712405e-4 H 3.1583345 V -4.8595668 l 6.4030531,-0.8112109 z m 11.7428684,20.170012 c 0.592657,0.05316 1.807504,0.07876 3.646512,0.07876 h 3.804027 c 3.296037,0 5.753297,-1.025827 7.371781,-3.079451 1.622422,-2.051655 2.433633,-4.940117 2.433633,-8.663418 0,-3.563815 -0.838776,-6.154964 -2.512391,-7.773448 -1.675584,-1.622422 -4.457722,-2.433633 -8.348384,-2.433633 -1.023859,0 -3.156241,0.108293 -6.395178,0.322909 z m 0,28.5892775 c 1.244382,0.4883017 3.618946,0.7324526 7.12763,0.7324526 4.587674,0 7.909307,-1.0789893 9.96293,-3.2369679 2.051655,-2.1619162 3.079452,-5.2964982 3.079452,-9.4037462 0,-3.941855 -0.933287,-6.761403 -2.795922,-8.458646 -1.864603,-1.70118 -4.82001,-2.55177 -8.868189,-2.55177 -4.53648,0 -7.371781,0.05316 -8.505901,0.157517 z M 70.795998,-52.405977 c -1.949269,0 -3.488995,-0.56706 -4.623115,-1.701181 -1.130182,-1.13412 -1.693304,-2.593118 -1.693304,-4.378963 0,-2.051655 0.645818,-3.752835 1.937455,-5.103541 1.295575,-1.348736 3.026289,-2.024089 5.190175,-2.024089 2.157978,0 3.804028,0.580843 4.938148,1.740559 1.13412,1.161686 1.70118,2.606901 1.70118,4.339585 0,2.157978 -0.649756,3.886724 -1.945331,5.182299 -1.297544,1.297543 -3.107017,1.945331 -5.42645,1.945331 z m -4.29233,15.06647 -5.757234,-1.543663 v -5.42645 l 14.830195,-1.779938 h 0.157517 l 2.26824,1.622421 v 38.9617518 l 5.42645,0.6458184 V -1.7712405e-4 H 60.833068 V -4.8595668 l 5.6706,-0.7324526 z m 19.518286,-27.297641 14.822316,-1.787814 h 0.1654 l 2.26824,1.543663 v 23.895281 c 1.45309,-1.458998 3.24681,-2.687628 5.37919,-3.68589 2.13632,-0.996293 4.44591,-1.496409 6.93074,-1.496409 5.18229,0 9.40571,1.823256 12.67221,5.465829 3.27044,3.644542 4.90665,9.220633 4.90665,16.728272 0,4.642804 -0.97464,8.852437 -2.92194,12.632838 -1.94336,3.7804001 -4.73731,6.7653412 -8.37988,8.9548231 -3.64455,2.18554401 -7.86796,3.27634703 -12.67222,3.27634703 -4.2687,0 -7.97035,-0.36622628 -11.104928,-1.09474094 -3.130644,-0.72851466 -5.127168,-1.39008469 -5.99351,-1.98471019 v -57.26519 l -6.072268,-0.976603 z m 25.273556,25.596461 c -1.62243,0 -3.15034,0.366226 -4.58374,1.094741 -1.42946,0.724577 -2.57343,1.547601 -3.43386,2.465136 v 29.5658814 c 0.31897,0.5946255 1.07308,1.0789893 2.26036,1.4570294 1.19122,0.37804 2.5439,0.56706 4.05606,0.56706 3.45355,0 6.2219,-1.6066701 8.30113,-4.8200105 2.07922,-3.2133403 3.11883,-7.9782203 3.11883,-14.2946393 0,-5.454015 -0.89391,-9.49038 -2.67779,-12.105157 -1.77994,-2.618715 -4.12694,-3.930041 -7.04099,-3.930041 z m 33.52939,-20.170011 -5.99351,-1.055362 v -4.371088 l 14.98771,-1.787814 h 0.1654 l 2.1816,1.543663 v 59.3759138 l 5.91475,0.6458184 V -1.7712405e-4 H 139.1543 V -4.8595668 l 5.6706,-0.7324526 z m 32.89145,6.804721 c -1.94927,0 -3.48899,-0.56706 -4.62311,-1.701181 -1.13018,-1.13412 -1.69331,-2.593118 -1.69331,-4.378963 0,-2.051655 0.64582,-3.752835 1.93746,-5.103541 1.29557,-1.348736 3.02629,-2.024089 5.19017,-2.024089 2.15798,0 3.80403,0.580843 4.93815,1.740559 1.13412,1.161686 1.70118,2.606901 1.70118,4.339585 0,2.157978 -0.64975,3.886724 -1.94533,5.182299 -1.29754,1.297543 -3.10702,1.945331 -5.42645,1.945331 z m -4.29233,15.06647 -5.75723,-1.543663 v -5.42645 l 14.83019,-1.779938 h 0.15752 l 2.26824,1.622421 v 38.9617518 l 5.42645,0.6458184 V -1.7712405e-4 H 167.75342 V -4.8595668 l 5.6706,-0.7324526 z m 23.1648,14.901078 c 0,-5.075975 1.01008,-9.39587 3.0322,-12.955747 2.02606,-3.563815 4.74125,-6.249474 8.14361,-8.056978 3.40236,-1.811442 7.10006,-2.717163 11.09705,-2.717163 6.80472,0 12.05396,2.093003 15.75167,6.27704 3.70164,4.186006 5.55246,9.86842 5.55246,17.051181 0,5.131106 -1.01401,9.49038 -3.04007,13.0817604 -2.02212,3.5913804 -4.72156,6.265226 -8.09636,8.0175991 -3.37676,1.75237313 -7.08825,2.63052863 -11.13643,2.63052863 -6.75353,0 -11.99292,-2.09103393 -15.72016,-6.27703983 -3.7233,-4.1840368 -5.58397,-9.8684203 -5.58397,-17.0511813 z m 21.94995,18.0671639 c 6.09983,0 9.15172,-5.8871859 9.15172,-17.6654959 0,-6.152995 -0.73048,-10.837148 -2.18948,-14.050488 -1.45506,-3.21334 -3.8316,-4.820011 -7.12763,-4.820011 -6.26523,0 -9.39587,5.887186 -9.39587,17.657621 0,6.158902 0.76789,10.845023 2.30762,14.0583634 1.54366,3.2133404 3.96154,4.8200105 7.25364,4.8200105 z m 0,0"
           style="fill:#3d3d3d;fill-opacity:1;fill-rule:nonzero;stroke:none"
           aria-label="Biblio"
           transform="matrix(1.9839168,0,0,1.9839168,184.03491,586.06285)" />
        <g
           id="g6" />
        <path
           id="path6"
           d="m 28.754476,0.88979213 c -8.801244,0 -15.387411,-2.75260403 -19.7604675,-8.26175003 C 4.6189826,-12.879135 2.4334387,-20.384805 2.4334387,-29.888968 c 0,-6.210095 1.1459338,-11.666079 3.4417395,-16.365983 2.2938367,-4.697935 5.5209598,-8.316881 9.6793998,-10.852899 4.158441,-2.536019 8.935134,-3.804028 14.334018,-3.804028 8.909538,0 15.590214,2.634466 20.043998,7.899461 4.457722,5.261058 6.686583,12.617087 6.686583,22.068088 0,6.265226 -1.177437,11.813751 -3.528373,16.649513 -2.346999,4.8318242 -5.627284,8.5689075 -9.836917,11.2151877 -4.211602,2.6462803 -9.045396,3.96942043 -14.499411,3.96942043 z M 29.565687,-55.97373 c -4.426219,0 -7.88371,2.187513 -10.372473,6.56057 -2.484826,4.375025 -3.72527,10.856837 -3.72527,19.445434 0,8.474398 1.201065,14.914861 3.607132,19.319421 2.404099,4.4006225 5.845838,6.5999491 10.325219,6.5999491 4.378964,0 7.808889,-2.3076194 10.293715,-6.9228581 2.482857,-4.619177 3.725269,-11.278195 3.725269,-19.973115 0,-8.421236 -1.18925,-14.698276 -3.567752,-18.83112 -2.374564,-4.130875 -5.802521,-6.198281 -10.28584,-6.198281 z m 37.991055,18.634223 -5.182299,-1.464905 v -5.583966 l 13.444049,-1.70118 h 0.244151 l 2.024089,1.622421 v 3.15821 l -0.07876,1.937455 c 1.8902,-1.779938 4.343523,-3.317695 7.363905,-4.615239 3.02432,-1.295574 6.076206,-1.945331 9.159595,-1.945331 3.292099,0 5.869468,0.610377 7.734068,1.827194 1.86264,1.212878 3.19956,3.116861 4.0088,5.709979 0.80728,2.595088 1.21288,6.103772 1.21288,10.529991 v 22.3594928 l 4.94602,0.6458184 V -1.7712405e-4 H 91.530781 V -4.8595668 l 4.378964,-0.6458184 V -27.864878 c 0,-2.807735 -0.18902,-5.009031 -0.56706,-6.599949 -0.37804,-1.594857 -1.069145,-2.756542 -2.071344,-3.481119 -0.998262,-0.728515 -2.415913,-1.094741 -4.252951,-1.094741 -3.077482,0 -6.369581,1.32314 -9.876296,3.96942 v 29.4792476 l 4.85939,0.7324526 V -1.7712405e-4 H 62.854869 V -4.8595668 l 4.701873,-0.7324526 z m 0,0"
           style="fill:#dfc67b;fill-opacity:1;fill-rule:nonzero;stroke:none"
           aria-label="On"
           transform="matrix(1.9839168,0,0,1.9839168,668.6996,586.06285)" />
      </g>
      <g
         id="g7">
        <g
           id="g8" />
        <path
           id="path8"
           d="m 3.8448716,-19.967711 -2.2968751,-0.359375 v -1.46875 h 3.9062502 c 0.7070312,0 1.3984375,-0.02344 2.078125,-0.07813 1.0625001,-0.08203 2.0625001,-0.125 3.0000003,-0.125 2.832031,0.02344 4.832031,0.554687 6,1.59375 1.175781,1.03125 1.765625,2.59375 1.765625,4.6875 0,1.5625 -0.367187,2.921875 -1.09375,4.078125 -0.71875,1.15625 -1.71875,2.0390627 -3,2.6406253 -1.28125,0.6054687 -2.75,0.90625 -4.4062502,0.90625 -0.5742187,0 -1.1523438,-0.015625 -1.734375,-0.046875 -0.5859376,-0.03125 -0.9453126,-0.054687 -1.0781251,-0.078125 v 6.4531253 l 4.0156253,0.328125 V 0.00103963 H 1.4073715 V -1.4364604 l 2.4375001,-0.296875 z m 3.1406251,10.1406252 c 0.5390625,0.1054688 1.4765626,0.15625 2.8125001,0.15625 1.5390622,0 2.7968752,-0.4687502 3.7656252,-1.4062502 0.96875,-0.945312 1.453125,-2.484375 1.453125,-4.609375 0,-1.6875 -0.421875,-2.894531 -1.265625,-3.625 -0.835938,-0.726563 -2.140625,-1.09375 -3.9218752,-1.09375 -0.625,0 -1.2929688,0.03906 -2,0.109375 -0.4296876,0.04297 -0.7109376,0.0625 -0.8437501,0.0625 z M 29.266748,0.32916464 c -1.992188,0 -3.679688,-0.45703127 -5.062501,-1.37500004 -1.375,-0.9257813 -2.417968,-2.2226564 -3.125,-3.8906252 -0.699218,-1.6757813 -1.046875,-3.6171876 -1.046875,-5.8281254 0,-2.25 0.421875,-4.222656 1.265625,-5.921875 0.851563,-1.695313 2.019532,-3.007813 3.5,-3.9375 1.488282,-0.9375 3.164063,-1.40625 5.031251,-1.40625 3.050781,0 5.378906,0.964843 6.984375,2.890625 1.613281,1.929687 2.421875,4.59375 2.421875,8 0,2.2812503 -0.4375,4.2929691 -1.3125,6.0312504 -0.867188,1.7304688 -2.058594,3.0703126 -3.578125,4.0156252 -1.511719,0.94921877 -3.203125,1.42187504 -5.078125,1.42187504 z m 0.375,-20.82812564 c -1.898438,0 -3.390625,0.828125 -4.484376,2.484375 -1.09375,1.648437 -1.640625,4.0625 -1.640625,7.25 0,2.9375003 0.53125,5.2617191 1.59375,6.9687505 1.070313,1.7109375 2.566407,2.5625001 4.484376,2.5625001 1.875,0 3.363281,-0.8476563 4.46875,-2.5468751 1.101562,-1.6953126 1.65625,-4.1406252 1.65625,-7.3281255 0,-2.957031 -0.53125,-5.257813 -1.59375,-6.90625 -1.054688,-1.65625 -2.546875,-2.484375 -4.484375,-2.484375 z m 11.910156,19.0625006 2.437501,-0.296875 V -19.967711 l -2.281251,-0.390625 v -1.4375 h 3.843751 c 0.539062,0 1.28125,-0.03516 2.21875,-0.109375 0.976562,-0.08203 1.742187,-0.125 2.296875,-0.125 2.875,0 4.921875,0.46875 6.140625,1.40625 1.21875,0.929687 1.828125,2.386719 1.828125,4.375 0,1.386719 -0.386719,2.65625 -1.15625,3.8125 -0.773437,1.15625 -1.835938,1.9375 -3.1875,2.34375 0.625,0.3359377 1.207031,0.9062502 1.75,1.7187503 0.539063,0.8125 1.203125,1.9453126 1.984375,3.3906251 0.601563,1.0937501 1.066406,1.8984376 1.390625,2.4062501 0.320313,0.5117188 0.628906,0.7929688 0.921875,0.8437501 l 1.140625,0.296875 v 1.43750003 h -4.046875 c -0.3125,0 -0.667969,-0.33593752 -1.0625,-1.01562503 -0.386719,-0.6757813 -0.902344,-1.7187501 -1.546875,-3.1250001 -0.699219,-1.5390626 -1.308594,-2.7656252 -1.828125,-3.6718752 -0.523438,-0.9140625 -1.039063,-1.5000001 -1.546875,-1.7500001 -2.085938,0 -3.324219,-0.00781 -3.71875,-0.03125 v 7.8593754 l 2.90625,0.296875 v 1.43750003 h -8.484376 z m 9.062501,-9.7031256 c 1.25,0 2.234375,-0.410156 2.953125,-1.234375 0.726562,-0.820312 1.09375,-2.046875 1.09375,-3.671875 0,-1.425781 -0.367188,-2.515625 -1.09375,-3.265625 -0.730469,-0.75 -1.996094,-1.125 -3.796875,-1.125 -0.625,0 -1.25,0.03906 -1.875,0.109375 -0.398438,0.04297 -0.652344,0.0625 -0.765625,0.0625 v 9.09375 c 0.289062,0.02344 0.894531,0.03125 1.8125,0.03125 z m 18.742188,-9.09375 -5.046875,0.171875 -1.015625,6.125 h -1.9375 l 0.5,-7.859375 h 18.265626 l 0.359375,7.859375 h -1.859376 l -0.953125,-6.125 -5.078125,-0.171875 v 18.5000006 l 4.15625,0.296875 V 0.00103963 H 65.544093 V -1.4364604 l 3.8125,-0.296875 z m 20.29297,-1.734375 h 3.234375 l 7.125002,20.2343756 1.8125,0.296875 V 0.00103963 H 94.087063 V -1.4364604 l 2.4375,-0.296875 -1.390625,-4.3437502 h -8.5625 l -1.375001,4.3437502 2.515626,0.296875 V 0.00103963 H 80.774562 V -1.4364604 l 1.8125,-0.296875 z m 1.859375,4.6875 -0.734375,-2.578125 -0.703125,2.640625 -2.96875,9.4218753 h 7.484375 z m 13.781252,-2.6875 -2.375,-0.359375 v -1.46875 h 8.42187 v 1.46875 l -2.90625,0.359375 v 18.2343756 l 7.5625,-0.2656251 1.73438,-4.9218752 1.78125,0.265625 -1.01563,6.65625033 H 102.85269 V -1.4364604 l 2.4375,-0.296875 z m 25.48047,0 -2.28125,-0.359375 v -1.46875 h 3.84375 c 0.60156,0 1.47265,-0.03516 2.60937,-0.109375 1.13282,-0.08203 1.98438,-0.125 2.54688,-0.125 3.63281,0 6.33594,0.917968 8.10937,2.75 1.76954,1.824219 2.65625,4.390625 2.65625,7.703125 0,2.3046877 -0.46093,4.3515628 -1.375,6.1406254 -0.90625,1.7929688 -2.18359,3.1875001 -3.82812,4.1875002 -1.63672,0.99218752 -3.52344,1.48437504 -5.65625,1.48437504 -0.46875,0 -1.27344,-0.0390625 -2.40625,-0.10937501 -1.16797,-0.0859375 -2.04688,-0.125 -2.64063,-0.125 h -4.01562 V -1.4364604 l 2.4375,-0.296875 z m 3.10937,18.3281256 c 0.6875,0.15625 1.56641,0.234375 2.64063,0.234375 h 0.875 c 1.46875,-0.019531 2.76562,-0.390625 3.89062,-1.1093751 1.125,-0.7265625 2,-1.8125001 2.625,-3.2500001 0.625,-1.4375001 0.9375,-3.1796876 0.9375,-5.2343754 0,-3.082031 -0.67187,-5.425781 -2.01562,-7.03125 -1.33594,-1.601563 -3.35156,-2.40625 -6.04688,-2.40625 -0.57422,0 -1.25,0.03906 -2.03125,0.109375 -0.33593,0.0625 -0.625,0.09375 -0.875,0.09375 z m 19.1211,-18.3281256 -2.40625,-0.359375 v -1.46875 h 14.9375 l 0.40625,4.546875 h -1.67188 l -0.85937,-2.84375 -7.26563,-0.171875 v 8.265625 l 4.89063,-0.07813 0.42187,-2.4375 h 1.60938 v 6.7500003 h -1.60938 l -0.42187,-2.5312503 -4.89063,-0.07813 v 8.7343756 l 8.26563,-0.2968751 1.5625,-3.6875001 1.73437,0.515625 -0.85937,5.10937523 H 150.56363 V -1.4364604 l 2.4375,-0.296875 z m 33.69922,20.29687564 c -2.11719,0 -3.9375,-0.46875002 -5.46875,-1.40625004 -1.53125,-0.9453126 -2.69922,-2.2421876 -3.5,-3.8906252 -0.80469,-1.65625 -1.20313,-3.5312501 -1.20313,-5.6250004 0,-2.394531 0.47266,-4.453125 1.42188,-6.171875 0.94531,-1.726563 2.25781,-3.035156 3.9375,-3.921875 1.6875,-0.894532 3.60156,-1.34375 5.75,-1.34375 1.97656,0 4.2539,0.308593 6.82812,0.921875 l -0.25,5.0625 h -2.09375 l -0.70312,-3.515625 c -0.27344,-0.21875 -0.73438,-0.421875 -1.39063,-0.609375 -0.65625,-0.195313 -1.53125,-0.296875 -2.625,-0.296875 -1.42968,0 -2.6875,0.355469 -3.78125,1.0625 -1.09375,0.699219 -1.94922,1.746094 -2.5625,3.140625 -0.61718,1.386719 -0.92187,3.0625 -0.92187,5.03125 0,1.824219 0.24219,3.4921878 0.73437,5.0000004 0.5,1.5 1.25782,2.7031251 2.28125,3.6093751 1.03125,0.9062501 2.28907,1.3593751 3.78125,1.3593751 0.9375,0 1.82813,-0.109375 2.67188,-0.328125 0.84375,-0.2265625 1.48828,-0.5312501 1.9375,-0.9062501 v -6.5312503 l -3.70313,-0.296875 v -1.7343752 h 8.5625 v 1.7343752 l -1.70312,0.265625 v 7.8906254 c -0.42969,0.023437 -1.14063,0.18749999 -2.14063,0.5 -1.01172,0.31250001 -1.96875,0.55859377 -2.875,0.73437503 -0.89843,0.17578126 -1.89062,0.26562501 -2.98437,0.26562501 z m 14.04687,-20.29687564 -2.40625,-0.359375 v -1.46875 h 14.9375 l 0.40625,4.546875 h -1.67187 l -0.85938,-2.84375 -7.26562,-0.171875 v 8.265625 l 4.89062,-0.07813 0.42188,-2.4375 h 1.60937 v 6.7500003 h -1.60937 l -0.42188,-2.5312503 -4.89062,-0.07813 v 8.7343756 l 8.26562,-0.2968751 1.5625,-3.6875001 1.73438,0.515625 -0.85938,5.10937523 H 198.30972 V -1.4364604 l 2.4375,-0.296875 z m 23.8125,20.29687564 c -1.01171,0 -1.91796,-0.0898438 -2.71875,-0.26562501 -0.80468,-0.17578126 -1.68359,-0.41015627 -2.64062,-0.70312503 -0.58594,-0.21875001 -1.02734,-0.33593751 -1.32813,-0.35937502 l 0.23438,-5.31250018 h 1.89062 l 0.48438,3.8125001 c 0.33203,0.3125 0.875,0.59375 1.625,0.8437501 0.75781,0.2421875 1.58594,0.359375 2.48437,0.359375 1.48829,0 2.61719,-0.328125 3.39063,-0.9843751 0.76953,-0.6640625 1.15625,-1.5859375 1.15625,-2.7656251 0,-0.7578125 -0.21484,-1.4101563 -0.64063,-1.9531251 -0.41796,-0.5507812 -0.97656,-1.0195313 -1.67187,-1.40625 -0.6875,-0.3945313 -1.63672,-0.8593751 -2.84375,-1.3906251 -1.09375,-0.4882812 -2.04688,-0.9843752 -2.85938,-1.4843752 -0.8125,-0.507812 -1.52343,-1.191406 -2.125,-2.046875 -0.59375,-0.851562 -0.89062,-1.875 -0.89062,-3.0625 0,-1.070313 0.28516,-2.035156 0.85937,-2.890625 0.58204,-0.851563 1.41407,-1.523438 2.5,-2.015625 1.08204,-0.488282 2.34766,-0.734375 3.79688,-0.734375 0.90625,0 1.70312,0.07422 2.39062,0.21875 0.69532,0.136718 1.48438,0.320312 2.35938,0.546875 0.39453,0.136718 0.72656,0.226562 1,0.265625 l -0.17188,4.921875 h -1.78125 l -0.59375,-3.59375 c -0.19921,-0.195313 -0.60546,-0.382813 -1.21875,-0.5625 -0.61718,-0.175781 -1.28125,-0.265625 -2,-0.265625 -1.35546,0 -2.38281,0.289062 -3.07812,0.859375 -0.6875,0.5625 -1.03125,1.382812 -1.03125,2.453125 0,0.78125 0.20703,1.4375 0.625,1.96875 0.41406,0.53125 0.9375,0.984375 1.5625,1.359375 0.63281,0.367188 1.63281,0.871094 3,1.515625 1.26953,0.605469 2.30469,1.152344 3.10937,1.640625 0.80079,0.492188 1.48829,1.1328127 2.0625,1.9218753 0.58204,0.7929687 0.875,1.734375 0.875,2.8281251 0,1.03125 -0.29296,2.0273438 -0.875,2.9843751 -0.57421,0.9609375 -1.45312,1.7500001 -2.64062,2.3750001 -1.17969,0.61328128 -2.60938,0.92187504 -4.29688,0.92187504 z m 17.42188,-20.56250064 -5.04687,0.171875 -1.01563,6.125 h -1.9375 l 0.5,-7.859375 h 18.26563 l 0.35937,7.859375 h -1.85937 l -0.95313,-6.125 -5.07812,-0.171875 v 18.5000006 l 4.15625,0.296875 V 0.00103963 H 238.1691 V -1.4364604 l 3.8125,-0.296875 z m 20.29297,-1.734375 h 3.23437 l 7.12501,20.2343756 1.8125,0.296875 v 1.43750003 h -7.73438 V -1.4364604 l 2.4375,-0.296875 -1.39062,-4.3437502 h -8.56251 l -1.375,4.3437502 2.51563,0.296875 v 1.43750003 h -6.9375 V -1.4364604 l 1.8125,-0.296875 z m 1.85937,4.6875 -0.73437,-2.578125 -0.70313,2.640625 -2.96875,9.4218753 h 7.48438 z m 1.93751,-6.625 c -0.57422,0 -1.04688,-0.09766 -1.42188,-0.296875 -0.36719,-0.207032 -0.79297,-0.507813 -1.28125,-0.90625 -0.33594,-0.289063 -0.625,-0.507813 -0.875,-0.65625 -0.24219,-0.144532 -0.50781,-0.21875 -0.79688,-0.21875 -0.49218,0 -0.85937,0.152343 -1.10937,0.453125 -0.24219,0.304687 -0.46094,0.730468 -0.65625,1.28125 l -1.375,-0.796875 c 0.26953,-0.875 0.67969,-1.585938 1.23437,-2.140626 0.55079,-0.550781 1.24219,-0.828125 2.07813,-0.828125 0.60156,0 1.09766,0.109375 1.48437,0.328125 0.38282,0.21875 0.8125,0.542969 1.28125,0.968751 0.33204,0.292968 0.60157,0.507812 0.8125,0.640625 0.21875,0.136718 0.45313,0.203125 0.70313,0.203125 0.4375,0 0.78516,-0.160157 1.04688,-0.484375 0.25781,-0.332032 0.48828,-0.765626 0.6875,-1.296876 l 1.375,0.796876 c -0.29297,0.917968 -0.6836,1.640625 -1.17188,2.171875 -0.49219,0.523437 -1.16406,0.78125 -2.01562,0.78125 z m 18.23437,24.23437564 c -1.99219,0 -3.67969,-0.45703127 -5.0625,-1.37500004 -1.375,-0.9257813 -2.41797,-2.2226564 -3.125,-3.8906252 -0.69922,-1.6757813 -1.04687,-3.6171876 -1.04687,-5.8281254 0,-2.25 0.42187,-4.222656 1.26562,-5.921875 0.85156,-1.695313 2.01953,-3.007813 3.5,-3.9375 1.48828,-0.9375 3.16406,-1.40625 5.03125,-1.40625 3.05078,0 5.37891,0.964843 6.98438,2.890625 1.61328,1.929687 2.42187,4.59375 2.42187,8 0,2.2812503 -0.4375,4.2929691 -1.3125,6.0312504 -0.86719,1.7304688 -2.05859,3.0703126 -3.57812,4.0156252 -1.51172,0.94921877 -3.20313,1.42187504 -5.07813,1.42187504 z m 0.375,-20.82812564 c -1.89844,0 -3.39062,0.828125 -4.48437,2.484375 -1.09375,1.648437 -1.64063,4.0625 -1.64063,7.25 0,2.9375003 0.53125,5.2617191 1.59375,6.9687505 1.07031,1.7109375 2.56641,2.5625001 4.48438,2.5625001 1.875,0 3.36328,-0.8476563 4.46875,-2.5468751 1.10156,-1.6953126 1.65625,-4.1406252 1.65625,-7.3281255 0,-2.957031 -0.53125,-5.257813 -1.59375,-6.90625 -1.05469,-1.65625 -2.54688,-2.484375 -4.48438,-2.484375 z m 21.29688,0.53125 -2.28125,-0.359375 v -1.46875 h 3.84375 c 0.60156,0 1.47265,-0.03516 2.60937,-0.109375 1.13281,-0.08203 1.98438,-0.125 2.54688,-0.125 3.63281,0 6.33593,0.917968 8.10937,2.75 1.76953,1.824219 2.65625,4.390625 2.65625,7.703125 0,2.3046877 -0.46094,4.3515628 -1.375,6.1406254 -0.90625,1.7929688 -2.18359,3.1875001 -3.82812,4.1875002 -1.63672,0.99218752 -3.52344,1.48437504 -5.65625,1.48437504 -0.46875,0 -1.27344,-0.0390625 -2.40625,-0.10937501 -1.16797,-0.0859375 -2.04688,-0.125 -2.64063,-0.125 H 303.5402 V -1.4364604 l 2.4375,-0.296875 z m 3.10937,18.3281256 c 0.6875,0.15625 1.56641,0.234375 2.64063,0.234375 h 0.875 c 1.46875,-0.019531 2.76562,-0.390625 3.89062,-1.1093751 1.125,-0.7265625 2,-1.8125001 2.625,-3.2500001 0.625,-1.4375001 0.9375,-3.1796876 0.9375,-5.2343754 0,-3.082031 -0.67187,-5.425781 -2.01562,-7.03125 -1.33594,-1.601563 -3.35157,-2.40625 -6.04688,-2.40625 -0.57422,0 -1.25,0.03906 -2.03125,0.109375 -0.33594,0.0625 -0.625,0.09375 -0.875,0.09375 z m 23.83985,-20.3281256 h 3.23437 l 7.125,20.2343756 1.8125,0.296875 v 1.43750003 h -7.73437 V -1.4364604 l 2.4375,-0.296875 -1.39063,-4.3437502 h -8.5625 l -1.375,4.3437502 2.51563,0.296875 v 1.43750003 h -6.9375 V -1.4364604 l 1.8125,-0.296875 z m 1.85937,4.6875 -0.73437,-2.578125 -0.70313,2.640625 -2.96875,9.4218753 h 7.48438 z m 20.66797,-2.6875 -2.40625,-0.359375 v -1.46875 h 3.96875 c 0.65625,0 1.49219,-0.03516 2.51563,-0.109375 0.9375,-0.08203 1.6289,-0.125 2.07812,-0.125 2.69531,0 4.62891,0.421875 5.79688,1.265625 1.16406,0.84375 1.75,2.078125 1.75,3.703125 0,1.386719 -0.40235,2.578125 -1.20313,3.578125 -0.80469,0.992188 -1.89844,1.617188 -3.28125,1.875 1.875,-0.03906 3.34766,0.398438 4.42188,1.3125 1.07031,0.917969 1.60937,2.167969 1.60937,3.7500004 0,1.9804688 -0.69922,3.5937501 -2.09375,4.8437502 -1.39844,1.25000001 -3.71094,1.87500003 -6.9375,1.87500003 -0.71094,0 -1.38281,-0.0273438 -2.01562,-0.078125 -1.53125,-0.0625 -2.44532,-0.09375 -2.73438,-0.09375 h -3.90625 V -1.4364604 l 2.4375,-0.296875 z m 3.10938,7.796875 c 0.26953,0.02344 0.82812,0.03125 1.67187,0.03125 h 1.60938 c 1.375,0 2.41015,-0.378906 3.10937,-1.140625 0.70703,-0.757812 1.0625,-1.847656 1.0625,-3.265625 0,-1.363281 -0.35547,-2.363281 -1.0625,-3 -0.69922,-0.632813 -1.90234,-0.953125 -3.60937,-0.953125 -0.69922,0 -1.41797,0.03906 -2.15625,0.109375 l -0.625,0.0625 z m 0,10.5312506 c 0.44531,0.15625 1.46093,0.234375 3.04687,0.234375 1.97656,0 3.41016,-0.40625 4.29688,-1.2187501 0.89453,-0.8125 1.34375,-1.9765626 1.34375,-3.5000001 0,-1.5078126 -0.39063,-2.6015626 -1.17188,-3.2812502 -0.77344,-0.6875002 -2.01562,-1.0312502 -3.73437,-1.0312502 -1.99219,0 -3.25,0.02344 -3.78125,0.0625 z m 17.51172,-18.3281256 -2.73438,-0.359375 v -1.46875 h 8.625 v 1.46875 l -2.71875,0.359375 v 18.2343756 l 2.71875,0.328125 v 1.40625003 h -8.59375 V -1.4364604 l 2.70313,-0.296875 z m 11.28906,0 -2.40625,-0.359375 v -1.46875 h 3.96875 c 0.65625,0 1.49219,-0.03516 2.51562,-0.109375 0.9375,-0.08203 1.62891,-0.125 2.07813,-0.125 2.69531,0 4.62891,0.421875 5.79687,1.265625 1.16407,0.84375 1.75,2.078125 1.75,3.703125 0,1.386719 -0.40234,2.578125 -1.20312,3.578125 -0.80469,0.992188 -1.89844,1.617188 -3.28125,1.875 1.875,-0.03906 3.34766,0.398438 4.42187,1.3125 1.07032,0.917969 1.60938,2.167969 1.60938,3.7500004 0,1.9804688 -0.69922,3.5937501 -2.09375,4.8437502 -1.39844,1.25000001 -3.71094,1.87500003 -6.9375,1.87500003 -0.71094,0 -1.38281,-0.0273438 -2.01563,-0.078125 -1.53125,-0.0625 -2.44531,-0.09375 -2.73437,-0.09375 h -3.90625 V -1.4364604 l 2.4375,-0.296875 z m 3.10937,7.796875 c 0.26954,0.02344 0.82813,0.03125 1.67188,0.03125 h 1.60937 c 1.375,0 2.41016,-0.378906 3.10938,-1.140625 0.70703,-0.757812 1.0625,-1.847656 1.0625,-3.265625 0,-1.363281 -0.35547,-2.363281 -1.0625,-3 -0.69922,-0.632813 -1.90234,-0.953125 -3.60938,-0.953125 -0.69921,0 -1.41796,0.03906 -2.15625,0.109375 l -0.625,0.0625 z m 0,10.5312506 c 0.44532,0.15625 1.46094,0.234375 3.04688,0.234375 1.97656,0 3.41016,-0.40625 4.29687,-1.2187501 0.89454,-0.8125 1.34375,-1.9765626 1.34375,-3.5000001 0,-1.5078126 -0.39062,-2.6015626 -1.17187,-3.2812502 -0.77344,-0.6875002 -2.01563,-1.0312502 -3.73438,-1.0312502 -1.99218,0 -3.25,0.02344 -3.78125,0.0625 z m 17.04297,-18.3281256 -2.375,-0.359375 v -1.46875 h 8.42188 v 1.46875 l -2.90625,0.359375 v 18.2343756 l 7.5625,-0.2656251 1.73437,-4.9218752 1.78125,0.265625 -1.01562,6.65625033 H 405.07926 V -1.4364604 l 2.4375,-0.296875 z m 19.0625,0 -2.73437,-0.359375 v -1.46875 h 8.625 v 1.46875 l -2.71875,0.359375 v 18.2343756 l 2.71875,0.328125 v 1.40625003 h -8.59375 V -1.4364604 l 2.70312,-0.296875 z m 17.74219,20.29687564 c -1.99219,0 -3.67969,-0.45703127 -5.0625,-1.37500004 -1.375,-0.9257813 -2.41797,-2.2226564 -3.125,-3.8906252 -0.69922,-1.6757813 -1.04687,-3.6171876 -1.04687,-5.8281254 0,-2.25 0.42187,-4.222656 1.26562,-5.921875 0.85156,-1.695313 2.01953,-3.007813 3.5,-3.9375 1.48828,-0.9375 3.16406,-1.40625 5.03125,-1.40625 3.05078,0 5.37891,0.964843 6.98438,2.890625 1.61328,1.929687 2.42187,4.59375 2.42187,8 0,2.2812503 -0.4375,4.2929691 -1.3125,6.0312504 -0.86718,1.7304688 -2.05859,3.0703126 -3.57812,4.0156252 -1.51172,0.94921877 -3.20313,1.42187504 -5.07813,1.42187504 z m 0.375,-20.82812564 c -1.89844,0 -3.39062,0.828125 -4.48437,2.484375 -1.09375,1.648437 -1.64063,4.0625 -1.64063,7.25 0,2.9375003 0.53125,5.2617191 1.59375,6.9687505 1.07031,1.7109375 2.56641,2.5625001 4.48438,2.5625001 1.875,0 3.36328,-0.8476563 4.46875,-2.5468751 1.10156,-1.6953126 1.65625,-4.1406252 1.65625,-7.3281255 0,-2.957031 -0.53125,-5.257813 -1.59375,-6.90625 -1.05469,-1.65625 -2.54688,-2.484375 -4.48438,-2.484375 z m 19.0625,0.265625 -5.04687,0.171875 -1.01563,6.125 h -1.9375 l 0.5,-7.859375 h 18.26563 l 0.35937,7.859375 h -1.85937 l -0.95313,-6.125 -5.07812,-0.171875 v 18.5000006 l 4.15625,0.296875 V 0.00103963 H 459.94645 V -1.4364604 l 3.8125,-0.296875 z m 15.57813,0.265625 -2.40625,-0.359375 v -1.46875 h 14.9375 l 0.40625,4.546875 h -1.67188 l -0.85937,-2.84375 -7.26563,-0.171875 v 8.265625 l 4.89063,-0.07813 0.42187,-2.4375 h 1.60938 v 6.7500003 h -1.60938 l -0.42187,-2.5312503 -4.89063,-0.07813 v 8.7343756 l 8.26563,-0.2968751 1.5625,-3.6875001 1.73437,0.515625 -0.85937,5.10937523 H 476.89958 V -1.4364604 l 2.4375,-0.296875 z m 26.40625,20.29687564 c -2.15625,0 -3.99609,-0.46093752 -5.51563,-1.39062504 -1.51171,-0.9375001 -2.65625,-2.2421876 -3.4375,-3.9218752 -0.78125,-1.6875001 -1.17187,-3.6601564 -1.17187,-5.9218754 0,-2.1875 0.45703,-4.117187 1.375,-5.796875 0.91406,-1.6875 2.17578,-2.992188 3.78125,-3.921875 1.60156,-0.9375 3.40625,-1.40625 5.40625,-1.40625 1.5,0 3.30469,0.234375 5.42188,0.703125 l 0.96875,0.1875 -0.29688,5.28125 h -1.96875 l -0.73437,-3.734375 c -0.27344,-0.226563 -0.7461,-0.425781 -1.42188,-0.59375 -0.66797,-0.164063 -1.49219,-0.25 -2.46875,-0.25 -1.25,0 -2.36719,0.359375 -3.34375,1.078125 -0.98047,0.710937 -1.75,1.757812 -2.3125,3.140625 -0.55469,1.386719 -0.82813,3.046875 -0.82813,4.984375 0,1.8437502 0.24219,3.5234378 0.73438,5.0312504 0.48828,1.5 1.22656,2.6953126 2.21875,3.5781251 1,0.8867188 2.23437,1.3281251 3.70313,1.3281251 1.03125,0 1.82031,-0.082031 2.375,-0.25 0.5625,-0.1757813 1.03906,-0.4296876 1.4375,-0.7656251 l 1.23437,-2.8750001 1.84375,0.234375 -0.70312,4.15625019 c -0.40625,0.0234375 -1.01172,0.16406251 -1.8125,0.42187502 -0.71094,0.21093751 -1.39063,0.37500002 -2.04688,0.50000002 -0.65625,0.13281251 -1.46875,0.20312501 -2.4375,0.20312501 z M 522.29802,-21.967711 h 3.23437 l 7.125,20.2343756 1.8125,0.296875 v 1.43750003 h -7.73437 V -1.4364604 l 2.4375,-0.296875 -1.39063,-4.3437502 h -8.5625 l -1.375,4.3437502 2.51563,0.296875 v 1.43750003 h -6.9375 V -1.4364604 l 1.8125,-0.296875 z m 1.85937,4.6875 -0.73437,-2.578125 -0.70313,2.640625 -2.96875,9.4218753 h 7.48438 z m 20.73047,-2.6875 -2.375,-0.359375 v -1.46875 h 8.42188 v 1.46875 l -2.90625,0.359375 v 18.2343756 l 7.5625,-0.2656251 1.73437,-4.9218752 1.78125,0.265625 -1.01562,6.65625033 H 542.45036 V -1.4364604 l 2.4375,-0.296875 z m 18.53125,0 -2.40625,-0.359375 v -1.46875 h 14.9375 l 0.40625,4.546875 h -1.67187 l -0.85938,-2.84375 -7.26562,-0.171875 v 8.265625 l 4.89062,-0.07813 0.42188,-2.4375 h 1.60937 v 6.7500003 h -1.60937 l -0.42188,-2.5312503 -4.89062,-0.07813 v 8.7343756 l 8.26562,-0.2968751 1.5625,-3.6875001 1.73438,0.515625 -0.85938,5.10937523 H 560.98161 V -1.4364604 l 2.4375,-0.296875 z m 19.625,0 -2.73437,-0.359375 v -1.46875 h 8.625 v 1.46875 l -2.71875,0.359375 v 18.2343756 l 2.71875,0.328125 v 1.40625003 h -8.59375 V -1.4364604 l 2.70312,-0.296875 z m 22.64844,11.6406253 h -11.85937 v -2.1406253 h 11.85937 z m 14.44922,8.56250034 c -2.875,0 -4.99609,-0.76562504 -6.35937,-2.29687514 -1.35547,-1.5390625 -2.03125,-3.9218751 -2.03125,-7.1406253 V -19.967711 l -2.07813,-0.359375 v -1.46875 h 7.82813 v 1.46875 l -2.48438,0.390625 v 11.0468753 c 0,2.6679688 0.47266,4.5898439 1.42188,5.7656252 0.94531,1.1679688 2.3125,1.7500001 4.09375,1.7500001 1.76953,0 3.09765,-0.6250001 3.98437,-1.8750001 0.89453,-1.2500001 1.34375,-3.0664064 1.34375,-5.4531252 V -19.936461 l -2.46875,-0.390625 v -1.46875 h 6.84375 v 1.46875 l -2.14062,0.359375 v 11.1093753 c 0,3.0546876 -0.72656,5.3359377 -2.17188,6.8437502 -1.44922,1.5000001 -3.375,2.25000014 -5.78125,2.25000014 z m 19.03125,-20.46875064 -5.04687,0.171875 -1.01563,6.125 h -1.9375 l 0.5,-7.859375 h 18.26563 l 0.35937,7.859375 h -1.85937 l -0.95313,-6.125 -5.07812,-0.171875 v 18.5000006 l 4.15625,0.296875 V 0.00103963 H 635.36052 V -1.4364604 l 3.8125,-0.296875 z m 20.29297,-1.734375 h 3.23438 l 7.125,20.2343756 1.8125,0.296875 v 1.43750003 h -7.73438 V -1.4364604 l 2.4375,-0.296875 -1.39062,-4.3437502 h -8.5625 l -1.375,4.3437502 2.51562,0.296875 v 1.43750003 h -6.9375 V -1.4364604 l 1.8125,-0.296875 z m 1.85938,4.6875 -0.73438,-2.578125 -0.70312,2.640625 -2.96875,9.4218753 h 7.48437 z m 13.71875,-2.6875 -2.28125,-0.359375 v -1.46875 h 3.84375 c 0.60156,0 1.47265,-0.03516 2.60937,-0.109375 1.13282,-0.08203 1.98438,-0.125 2.54688,-0.125 3.63281,0 6.33594,0.917968 8.10937,2.75 1.76954,1.824219 2.65625,4.390625 2.65625,7.703125 0,2.3046877 -0.46093,4.3515628 -1.375,6.1406254 -0.90625,1.7929688 -2.18359,3.1875001 -3.82812,4.1875002 -1.63672,0.99218752 -3.52344,1.48437504 -5.65625,1.48437504 -0.46875,0 -1.27344,-0.0390625 -2.40625,-0.10937501 -1.16797,-0.0859375 -2.04688,-0.125 -2.64063,-0.125 h -4.01562 V -1.4364604 l 2.4375,-0.296875 z m 3.10937,18.3281256 c 0.6875,0.15625 1.56641,0.234375 2.64063,0.234375 h 0.875 c 1.46875,-0.019531 2.76562,-0.390625 3.89062,-1.1093751 1.125,-0.7265625 2,-1.8125001 2.625,-3.2500001 0.625,-1.4375001 0.9375,-3.1796876 0.9375,-5.2343754 0,-3.082031 -0.67187,-5.425781 -2.01562,-7.03125 -1.33594,-1.601563 -3.35156,-2.40625 -6.04688,-2.40625 -0.57422,0 -1.25,0.03906 -2.03125,0.109375 -0.33593,0.0625 -0.625,0.09375 -0.875,0.09375 z m 0,0"
           style="fill:#3d3d3d;fill-opacity:1;fill-rule:nonzero;stroke:none"
           aria-label="PORTAL DE GESTÃO DA BIBLIOTECA LEI-UTAD"
           transform="translate(189.10435,637.0263)" />
      </g>
    </g>
  </g>
</svg>
