<?xml version="1.0" encoding="UTF-8" standalone="no"?>
<svg
   viewBox="0 0 701.4455 183.05783"
   height="183.05783"
   width="701.4455"
   xml:space="preserve"
   id="svg2"
   version="1.1"
   sodipodi:docname="BiblioOnLogoIcon.svg"
   xmlns:inkscape="http://www.inkscape.org/namespaces/inkscape"
   xmlns:sodipodi="http://sodipodi.sourceforge.net/DTD/sodipodi-0.dtd"
   xmlns="http://www.w3.org/2000/svg"
   xmlns:svg="http://www.w3.org/2000/svg"
   xmlns:rdf="http://www.w3.org/1999/02/22-rdf-syntax-ns#"
   xmlns:cc="http://creativecommons.org/ns#"
   xmlns:dc="http://purl.org/dc/elements/1.1/"><sodipodi:namedview
     id="namedview1"
     pagecolor="#ffffff"
     bordercolor="#000000"
     borderopacity="0.25"
     inkscape:showpageshadow="2"
     inkscape:pageopacity="0.0"
     inkscape:pagecheckerboard="0"
     inkscape:deskcolor="#d1d1d1"><inkscape:page
       x="0"
       y="0"
       width="701.4455"
       height="183.05783"
       id="page2"
       margin="0"
       bleed="0" /></sodipodi:namedview><metadata
     id="metadata8"><rdf:RDF><cc:Work
         rdf:about=""><dc:format>image/svg+xml</dc:format><dc:type
           rdf:resource="http://purl.org/dc/dcmitype/StillImage" /></cc:Work></rdf:RDF></metadata><defs
     id="defs6"><clipPath
       id="clipPath14"
       clipPathUnits="userSpaceOnUse"><path
         id="path12"
         d="M 0,7.920007 H 810 V 817.92 H 0 Z" /></clipPath><clipPath
       id="clipPath50"
       clipPathUnits="userSpaceOnUse"><path
         style="clip-rule:evenodd"
         id="path48"
         d="M 0,0 H 3375 V 3375 H 0 Z" /></clipPath></defs><g
     clip-path="url(#clipPath14)"
     transform="matrix(1.3333333,0,0,-1.3333333,-190.30209,636.26889)"
     id="g10"><g
       id="g16"><g
         transform="matrix(0.23999999,0,0,-0.23999999,0,817.91998)"
         id="g18"><g
           id="g44"><g
             clip-path="url(#clipPath50)"
             id="g46"><g
               transform="matrix(6.1997404,0,0,6.1997404,451.69553,1310.6682)"
               id="g52"><text
   id="text56"
   style="font-variant:normal;font-weight:bold;font-size:81px;font-family:Merriweather;-inkscape-font-specification:Merriweather-Bold;writing-mode:lr-tb;fill:#3d3d3d;fill-opacity:1;fill-rule:nonzero;stroke:none"
   transform="translate(19.90625,84)"><tspan
     id="tspan54"
     y="0"
     x="0 57.510067 86.022102 136.48517 164.43021 192.94225">Biblio</tspan></text>
<text
   id="text60"
   style="font-variant:normal;font-weight:bold;font-size:81px;font-family:Merriweather;-inkscape-font-specification:Merriweather-Bold;writing-mode:lr-tb;fill:#dfc67b;fill-opacity:1;fill-rule:nonzero;stroke:none"
   transform="translate(264.20313,84)"><tspan
     id="tspan58"
     y="0"
     x="0 59.373074">On</tspan></text>
</g><g
               transform="matrix(3.125,0,0,3.125,590.95111,1896.9572)"
               id="g62"><text
   id="text66"
   style="font-variant:normal;font-weight:normal;font-size:29.33px;font-family:Merriweather;-inkscape-font-specification:Merriweather-Regular;writing-mode:lr-tb;fill:#3d3d3d;fill-opacity:1;fill-rule:nonzero;stroke:none"
   transform="translate(0,30)"><tspan
     id="tspan64"
     y="0"
     x="0 19.033936 40.208832 60.85582 81.150864 101.44591 120.03993 126.99069 149.22141 168.31401 175.26477 196.96758 216.06018 233.48108 253.77612 274.07117 295.24606 302.19684 324.42755 344.7226 351.67334 371.76309 383.58234 403.67209 422.26611 434.08533 455.26022 475.55527 494.64789 513.79913 534.09418 541.04492 559.63892 578.73151 590.55072 608.96875 630.67157 650.96661 671.26166">PORTAL DE GESTÃO DA BIBLIOTECA LEI-UTAD</tspan></text>
</g></g></g></g></g></g></svg>
