<?xml version="1.0" encoding="UTF-8" standalone="no"?>
<svg
   viewBox="0 0 755.59363 439.16479"
   height="439.16479"
   width="755.59363"
   xml:space="preserve"
   id="svg2"
   version="1.1"
   sodipodi:docname="BiblioOnLogoIcon-2.svg"
   inkscape:version="1.4 (86a8ad7, 2024-10-11)"
   xmlns:inkscape="http://www.inkscape.org/namespaces/inkscape"
   xmlns:sodipodi="http://sodipodi.sourceforge.net/DTD/sodipodi-0.dtd"
   xmlns="http://www.w3.org/2000/svg"
   xmlns:svg="http://www.w3.org/2000/svg"
   xmlns:rdf="http://www.w3.org/1999/02/22-rdf-syntax-ns#"
   xmlns:cc="http://creativecommons.org/ns#"
   xmlns:dc="http://purl.org/dc/elements/1.1/"><sodipodi:namedview
     id="namedview1"
     pagecolor="#ffffff"
     bordercolor="#000000"
     borderopacity="0.25"
     inkscape:showpageshadow="2"
     inkscape:pageopacity="0.0"
     inkscape:pagecheckerboard="0"
     inkscape:deskcolor="#d1d1d1"
     inkscape:zoom="0.71574074"
     inkscape:cx="539.30142"
     inkscape:cy="540"
     inkscape:window-width="1920"
     inkscape:window-height="991"
     inkscape:window-x="-9"
     inkscape:window-y="-9"
     inkscape:window-maximized="1"
     inkscape:current-layer="g18"><inkscape:page
       x="0"
       y="0"
       width="755.59363"
       height="439.16479"
       id="page2"
       margin="0"
       bleed="0" /></sodipodi:namedview><metadata
     id="metadata8"><rdf:RDF><cc:Work
         rdf:about=""><dc:format>image/svg+xml</dc:format><dc:type
           rdf:resource="http://purl.org/dc/dcmitype/StillImage" /></cc:Work></rdf:RDF></metadata><defs
     id="defs6"><clipPath
       id="clipPath14"
       clipPathUnits="userSpaceOnUse"><path
         id="path12"
         d="M 0,7.920007 H 810 V 817.92 H 0 Z" /></clipPath><clipPath
       id="clipPath50"
       clipPathUnits="userSpaceOnUse"><path
         style="clip-rule:evenodd"
         id="path48"
         d="M 506.86536,1388.0404 H 2869.3654 v 906.2501 H 506.86536 Z" /></clipPath><clipPath
       id="clipPath62"
       clipPathUnits="userSpaceOnUse"><path
         style="clip-rule:evenodd"
         id="path60"
         d="M 0,0 H 3375 V 3375 H 0 Z" /></clipPath></defs><g
     clip-path="url(#clipPath14)"
     transform="matrix(1.3333333,0,0,-1.3333333,-162.19695,799.84442)"
     id="g10"><g
       id="g16"
       style="display:inline"><g
         transform="matrix(0.23999999,0,0,-0.23999999,0,817.91998)"
         id="g18"><g
           id="g44"
           inkscape:export-filename="g44.svg"
           inkscape:export-xdpi="96"
           inkscape:export-ydpi="96"><g
             clip-path="url(#clipPath50)"
             id="g46"><g
               transform="matrix(5.0217576,0,0,5.0217576,392.36929,704.54639)"
               id="g52"><path
                 id="path54"
                 style="fill:#dfc67b;fill-opacity:1;fill-rule:nonzero;stroke:none"
                 d="M 477.10001,293.20001 407.29999,287.80002 478,294.70001 c 0,0 0.39999,0.70001 0.39999,0.70001 l 5.10001,8.5 -132.5,-9 c -1.10001,-5.20001 -1.89999,-11.79998 -2.60001,-18.20001 0,-0.5 -0.1,-0.89999 -0.20001,-1.39999 l 109.4,6 c -37.29999,-5.10001 -73.9,-7.9 -109.60001,-8.4 -0.39999,-3.1 -0.70001,-6.1 -1.20001,-8.89999 25.89999,-0.20001 55.6,2.39999 87.5,6.5 -31.9,-6.20001 -62.10001,-10.79999 -88.30002,-11.20001 -0.60001,-2.9 -1.20001,-5.5 -2.10001,-7.7 35.29999,0.9 77.4,9.3 118.5,16.59999 l 14.70002,24.70001 z m -323,-156.90001 -10.7,7.4 c 62,31 103.09999,75.09999 116.7,133.39998 v -23.5 c -12.9,-50.4 -46.7,-89.5 -106,-117.30001 z m 170.29998,109.30001 c 13.5,16.39999 5.70002,49 15.70002,61.29998 l 3.39999,-7 c 0,0 3,4 9.5,5.9 C 342.39999,291.5 348.60001,257.5 335.60001,243.29999 l -11.20002,2.39999 v -0.1 z m -58.6,32.29998 c 3.39999,2 6.5,7.79999 7.5,12 l 59.5,3.9 c -0.60001,-4.10001 -1,-8.60001 -1.5,-13.5 -0.20001,-1.9 -0.4,-3.9 -0.60001,-5.9 l -17.39999,-1 C 319,273.19998 324.79999,273.10001 330.5,273 c -0.29999,-2.79999 -0.60001,-5.60001 -1.10001,-8.29999 -20.70001,1.4 -38.39999,5 -51.79998,11.79999 12.5,-10.20001 29.89999,-15.20001 50.79998,-16.60001 -0.70001,-3 -1.6,-5.6 -2.79998,-7.39999 l -0.29999,-0.39999 c -26.60001,1.6 -48,11.20001 -59.70001,25.79998 z m -33.69998,-18.19998 c -34.5,-20.1 -84.60001,-23 -148.10001,-11.3 l -15.099998,16.3 c 50.499998,-16.6 116.999988,-25.8 163.200008,-5 z m 24.1,13.69998 c -27,-35 -102.89999,-64.3 -153.8,-73.69999 l -31.800004,34.90001 c 79.300004,-9.9 147.000004,7 185.600004,38.79998 z M 65.5,268.70001 c 60.4,-21.1 145.89999,-31.39999 191.5,9.10001 -9.10001,4.1 -14.3,13.89999 -14.8,20.5 -0.4,-0.20001 -207.100009,4.20001 -207.100009,4.20001 l 7.700001,-12.70001 10.7,-13.29999 c 1.599999,-0.20001 3.099999,-0.5 4.700001,-0.70001 l 4,-4.70001 1.799999,-0.29999 1.5,-2 z m 159,16.4 C 173.10001,281.39999 118.3,283.5 61,289.89999 112.9,287 167.5,285.5 224.5,285.10001 Z M 111,277 c 50.3,-5.20001 96.5,-5.70001 135.5,2.39999 -31.60001,-18.1 -81,-13.5 -135.5,-2.39999 z m 180.89999,-19.5 c 7.10001,-3.3 24.29999,-7.39999 32.5,-7.39999 l -2.70001,-3.9 c -6.70001,0.60001 -23.39999,6.80001 -29.79999,11.4 z M 22.9,309.39999 c 0,1.4 1.2,2.60001 2.7,2.60001 l 214.80001,-4.60001 c 16.09999,7.20002 21.7,8.9 38.40001,1.20002 3.29999,-1.5 5.1,-3.60001 5.20001,-6.10001 0,-1 -0.20001,-2 -0.60001,-2.89999 l 51.20002,3.5 c -0.5,-1.70002 -1,-3.5 -1.29999,-5.5 l -56.20001,-3.79999 c -1.20002,0 -2.29999,0.70001 -2.70002,1.79999 -0.39999,1.20001 0.10001,2.39999 1.10001,3 1.5,0.89999 3.20001,2.6 3.20001,3.39999 0,0.20001 -0.5,0.89999 -2.20001,1.70001 -14.89999,6.79999 -18.79999,5.60001 -34.5,-1.5 C 241.60004,302 241.20003,302 240.80003,302 l -210.600003,4.5 9.5,-12.79999 -15.899999,13.4 c -0.600001,0.5 -1,1.29998 -1,2.1 z m 430.49999,-46.1 -34,-19.60001 c -14.6,-2.2 -28.70001,-3.8 -42.20001,-4.5 -14.1,0.7 -27,1.8 -38.79999,3.60001 l 3.4,5.19999 c 0,0 0,0.2 0.1,0.2 33.10001,0.60001 72.4,8 111.30002,15.10001 z m 36.9,50.6 c 1.39999,0 2.6,-1.1 2.70001,-2.39999 0,-0.60001 -0.10001,-1.20001 -0.5,-1.70001 -0.20001,-0.20001 -0.39999,-0.4 -0.60001,-0.60001 l -10.20001,-10.29999 5.9,9.20002 -135.9,-9.20002 c 0.5,2 1.20001,3.60001 1.9,4.9 l 0.39999,0.70001 136.19998,9.39999 c 0,0 0.10001,0 0.20001,0 h -0.1 z M 261.60001,254 v 23.10001 c 28.89999,-49.2 90,-84.80001 176.5,-96.10001 l -33.5,-16.39999 c -68.5,13.8 -118.30002,47.39999 -143,89.39999 z m -3.9,19.39999 c -6.19999,-21.8 -16.3,-41.39999 -30.1,-59 -30,-24.19999 -70.7,-36.6 -113.30001,-54.1 l -31.099995,28.5 C 168.8,210.59999 229,233.19998 257.60001,273.29999 Z M 338.5,214.8 c -27.60001,13.5 -59.29999,35.40001 -75,62.30001 36.39999,-37.9 125,-61 188.79999,-65.2 L 421.89999,192.3 C 393.10001,196.8 362,205.2 338.5,214.8 Z m 53,8.30001 c -33.79999,7.1 -64.70001,16.69999 -80.29999,23.89999 34.5,-11.2 82.79999,-11 146.4,-10.89999 l -30.79999,-14.9 c -12.20001,0.30001 -24,0.9 -35.29999,1.80001 l -3e-5,0.1 z" /></g></g></g><g
           id="g56"><g
             clip-path="url(#clipPath62)"
             id="g58"><g
               transform="matrix(3.5383682,0,0,3.5383682,694.67041,728.13824)"
               id="g64"><text
   id="text68"
   style="font-variant:normal;font-weight:bold;font-size:208.68px;font-family:Merriweather;-inkscape-font-specification:Merriweather-Bold;writing-mode:lr-tb;display:inline;fill:#3d3d3d;fill-opacity:1;fill-rule:nonzero;stroke:none"
   transform="translate(22.234375,220)"><tspan
     id="tspan66"
     y="0"
     x="0 148.15707">Bi</tspan></text>
<text
   id="text72"
   style="font-variant:normal;font-weight:bold;font-size:208.68px;font-family:Merriweather;-inkscape-font-specification:Merriweather-Bold;writing-mode:lr-tb;display:inline;fill:#dfc67b;fill-opacity:1;fill-rule:nonzero;stroke:none"
   transform="translate(243.85938,220)"><tspan
     id="tspan70"
     y="0"
     x="0 152.95651">On</tspan></text>
</g></g></g></g></g></g></svg>
