<svg xmlns="http://www.w3.org/2000/svg" width="175" height="250" viewBox="0 0 175 250"><rect width="100%" height="100%" fill="#DDDDDD"/><path fill="#999999" d="m67.465 94.5-4.06-6.44q2.12-1.87 4.65-3.56 2.53-1.69 5.47-2.94t6.38-1.97q3.43-.72 7.43-.72 5.44 0 9.91 1.5t7.66 4.29q3.19 2.78 4.94 6.71 1.75 3.94 1.75 8.82 0 4.75-1.38 8.22-1.37 3.46-3.44 6.03-2.06 2.56-4.53 4.43l-4.65 3.54q-2.19 1.65-3.79 3.25-1.59 1.59-1.9 3.59l-1.44 9.12h-10.56l-1.07-10.18q-.37-2.94.85-5.16t3.25-4.06q2.03-1.85 4.53-3.56 2.5-1.72 4.69-3.75 2.19-2.04 3.65-4.57 1.47-2.53 1.47-6.03 0-2.25-.84-4.03-.84-1.78-2.34-3.06t-3.6-1.97q-2.09-.69-4.53-.69-3.56 0-6.03.78t-4.19 1.75q-1.72.97-2.91 1.75-1.18.78-2.12.78-2.25 0-3.25-1.87Zm7.75 67.25q0-1.94.72-3.69t1.97-3q1.25-1.25 3-2t3.75-.75q2 0 3.72.75 1.72.75 3 2t2.03 3q.75 1.75.75 3.69 0 2-.75 3.72-.75 1.72-2.03 2.97-1.28 1.25-3 1.97t-3.72.72q-2 0-3.75-.72t-3-1.97q-1.25-1.25-1.97-2.97-.72-1.72-.72-3.72Z"/></svg>